<svg version="1.2" baseProfile="tiny-ps" xmlns="http://www.w3.org/2000/svg" viewBox="0 0 32 32" width="32" height="32">
	<title>hand-scissors-solid-svgrepo-com-svg</title>
	<style>
		tspan { white-space:pre }
		.s0 { fill: #000000 } 
	</style>
	<path id="Layer" fill-rule="evenodd" class="s0" d="m7.06 19.72c0.28-1.61 1.23-2.63 2.06-3.13c0.2-0.12 0.41-0.21 0.59-0.28l-2.59-8.44c-0.48-1.57 0.43-3.27 2-3.75c1.57-0.48 3.27 0.43 3.75 2l0.13 0.41v-1.53c0-1.64 1.36-3 3-3c1.64 0 3 1.36 3 3v3.91c0.72-0.32 1.56-0.38 2.34-0.06c0.68 0.27 1.21 0.79 1.53 1.41c0.7-0.29 1.5-0.33 2.25-0.03c1.19 0.48 1.9 1.66 1.88 2.88v9.91c0 3.86-3.14 7-7 7h-5.28c-3.07 0-5.79-2-6.69-4.94l-0.78-2.5c0-0.01 0-0.02 0-0.03c-0.13-0.42-0.3-1.11-0.28-1.94c0-0.28 0.04-0.57 0.09-0.88zm1.97-12.44l2.63 8.63l4.09-0.53c-0.01-0.39 0.07-0.78 0.22-1.16l1.03-2.63v-6.59c0-0.57-0.43-1-1-1c-0.57 0-1 0.43-1 1v8.22h-0.84l-1.13 0.34l-2.06-6.84c-0.16-0.54-0.71-0.85-1.25-0.69c-0.41 0.12-0.68 0.45-0.72 0.84c-0.02 0.13-0.01 0.27 0.03 0.41zm0.16 14.69l0.75 2.5c0.65 2.1 2.58 3.53 4.78 3.53h5.28c2.77 0 5-2.23 5-5v-5.09c-0.82 0.82-2.07 1.11-3.22 0.66c-0.43-0.17-0.8-0.43-1.09-0.75c0.06 0.61-0.06 1.22-0.38 1.75c-0.39 0.64-1.01 1.11-1.78 1.38c-0.03 0.01-0.06 0.02-0.09 0.03l-3.69 0.97l0.28 0.5c0.27 0.48 0.09 1.09-0.39 1.36c-0.48 0.27-1.09 0.09-1.36-0.39l-0.91-1.66c-0.14-0.27-0.16-0.59-0.04-0.87c0.12-0.28 0.36-0.49 0.66-0.57l4.84-1.25c0.45-0.16 0.65-0.36 0.75-0.53c0.1-0.17 0.14-0.33 0.06-0.66c-0.13-0.53-0.63-0.84-1.16-0.72c-0.03 0.01-0.06 0.02-0.09 0.03l-6.44 0.84c-0.02 0-0.04 0-0.06 0c0 0-0.31 0.02-0.75 0.28c-0.44 0.26-0.91 0.68-1.09 1.75c-0.03 0.17-0.03 0.37-0.03 0.56c0 0.57 0.09 1.14 0.16 1.34zm10.41-6.13c0.03-0.05 0.07-0.07 0.09-0.13l1.47-3.72c0.21-0.52-0.04-1.1-0.56-1.31c-0.52-0.21-1.07 0.04-1.28 0.56l-1.5 3.72c-0.03 0.07-0.02 0.14-0.03 0.22c0.66 0.01 1.3 0.26 1.81 0.66zm2.38 0.34c0.1 0.23 0.27 0.43 0.53 0.53c0.52 0.21 1.1-0.04 1.31-0.56l1.13-2.78c0.05-0.13 0.07-0.27 0.06-0.41c0-0.01 0-0.02 0-0.03c-0.02-0.38-0.24-0.72-0.63-0.88c-0.52-0.21-1.1 0.04-1.31 0.56l-0.03 0.13l-0.53 1.31l-0.53 1.34c-0.05 0.13-0.06 0.27-0.06 0.41c0 0.13 0.01 0.26 0.06 0.38z" />
</svg>